<svg xmlns="http://www.w3.org/2000/svg" viewBox="0 0 16 16" fill="none">
<path d="M8.00065 15.1673C4.04732 15.1673 0.833984 11.954 0.833984 8.00065C0.833984 4.04732 4.04732 0.833984 8.00065 0.833984C11.954 0.833984 15.1673 4.04732 15.1673 8.00065C15.1673 11.954 11.954 15.1673 8.00065 15.1673ZM8.00065 1.83398C4.60065 1.83398 1.83398 4.60065 1.83398 8.00065C1.83398 11.4007 4.60065 14.1673 8.00065 14.1673C11.4007 14.1673 14.1673 11.4007 14.1673 8.00065C14.1673 4.60065 11.4007 1.83398 8.00065 1.83398Z" fill="currentColor"/>
<path d="M6.11357 10.3869C5.9869 10.3869 5.86023 10.3402 5.76023 10.2402C5.5669 10.0469 5.5669 9.7269 5.76023 9.53357L9.53357 5.76023C9.7269 5.5669 10.0469 5.5669 10.2402 5.76023C10.4336 5.95357 10.4336 6.27357 10.2402 6.4669L6.4669 10.2402C6.37357 10.3402 6.24023 10.3869 6.11357 10.3869Z" fill="currentColor"/>
<path d="M9.8869 10.3869C9.76023 10.3869 9.63357 10.3402 9.53357 10.2402L5.76023 6.4669C5.5669 6.27357 5.5669 5.95357 5.76023 5.76023C5.95357 5.5669 6.27357 5.5669 6.4669 5.76023L10.2402 9.53357C10.4336 9.7269 10.4336 10.0469 10.2402 10.2402C10.1402 10.3402 10.0136 10.3869 9.8869 10.3869Z" fill="currentColor"/>
</svg>