<svg xmlns="http://www.w3.org/2000/svg" viewBox="0 0 16 16" fill="none">
<path d="M4.12009 15.1669C4.05342 15.1669 3.98009 15.1603 3.92009 15.1536L2.47342 14.9536C1.78009 14.8603 1.15342 14.2403 1.04676 13.5336L0.846758 12.0736C0.780091 11.6069 0.980091 11.0003 1.31342 10.6603L4.24009 7.73361C3.76676 5.84028 4.31343 3.84027 5.70676 2.46027C7.86676 0.306941 11.3801 0.300274 13.5468 2.46027C14.5934 3.50694 15.1668 4.90027 15.1668 6.38027C15.1668 7.86027 14.5934 9.25361 13.5468 10.3003C12.1468 11.6869 10.1534 12.2336 8.27342 11.7536L5.34009 14.6803C5.06009 14.9736 4.56009 15.1669 4.12009 15.1669ZM9.62009 1.84027C8.45342 1.84027 7.29342 2.28027 6.40676 3.16694C5.20676 4.36027 4.77342 6.10694 5.27342 7.73361C5.32676 7.91361 5.28009 8.10028 5.14676 8.23361L2.01342 11.3669C1.90009 11.4803 1.80676 11.7736 1.82676 11.9269L2.02676 13.3869C2.06676 13.6403 2.34009 13.9269 2.59342 13.9603L4.04676 14.1603C4.20676 14.1869 4.50009 14.0936 4.61342 13.9803L7.76009 10.8403C7.89342 10.7069 8.08676 10.6669 8.26009 10.7203C9.86676 11.2269 11.6201 10.7936 12.8201 9.59361C13.6734 8.74028 14.1468 7.59361 14.1468 6.38027C14.1468 5.16027 13.6734 4.02027 12.8201 3.16694C11.9534 2.28694 10.7868 1.84027 9.62009 1.84027Z" fill="currentColor"/>
<path d="M6.12737 13.6938C6.0007 13.6938 5.87404 13.6471 5.77404 13.5471L4.2407 12.0138C4.04737 11.8204 4.04737 11.5004 4.2407 11.3071C4.43404 11.1138 4.75404 11.1138 4.94737 11.3071L6.4807 12.8404C6.67404 13.0338 6.67404 13.3538 6.4807 13.5471C6.3807 13.6471 6.25404 13.6938 6.12737 13.6938Z" fill="currentColor"/>
<path d="M9.66602 7.83301C8.83935 7.83301 8.16602 7.15967 8.16602 6.33301C8.16602 5.50634 8.83935 4.83301 9.66602 4.83301C10.4927 4.83301 11.166 5.50634 11.166 6.33301C11.166 7.15967 10.4927 7.83301 9.66602 7.83301ZM9.66602 5.83301C9.39268 5.83301 9.16602 6.05967 9.16602 6.33301C9.16602 6.60634 9.39268 6.83301 9.66602 6.83301C9.93935 6.83301 10.166 6.60634 10.166 6.33301C10.166 6.05967 9.93935 5.83301 9.66602 5.83301Z" fill="currentColor"/>
</svg>