<svg xmlns="http://www.w3.org/2000/svg" viewBox="0 0 16 16" fill="none">
<path d="M7.66732 14.5007C3.90065 14.5007 0.833984 11.434 0.833984 7.66732C0.833984 3.90065 3.90065 0.833984 7.66732 0.833984C11.434 0.833984 14.5007 3.90065 14.5007 7.66732C14.5007 11.434 11.434 14.5007 7.66732 14.5007ZM7.66732 1.83398C4.44732 1.83398 1.83398 4.45398 1.83398 7.66732C1.83398 10.8807 4.44732 13.5007 7.66732 13.5007C10.8873 13.5007 13.5007 10.8807 13.5007 7.66732C13.5007 4.45398 10.8873 1.83398 7.66732 1.83398Z" fill="currentColor"/>
<path d="M14.6676 15.1676C14.5409 15.1676 14.4143 15.1209 14.3143 15.0209L12.9809 13.6876C12.7876 13.4943 12.7876 13.1743 12.9809 12.9809C13.1743 12.7876 13.4943 12.7876 13.6876 12.9809L15.0209 14.3143C15.2143 14.5076 15.2143 14.8276 15.0209 15.0209C14.9209 15.1209 14.7943 15.1676 14.6676 15.1676Z" fill="currentColor"/>
</svg>