<svg xmlns="http://www.w3.org/2000/svg" viewBox="0 0 16 16" fill="none">
<path d="M11.334 14.1663H4.66732C2.23398 14.1663 0.833984 12.7663 0.833984 10.333V5.66634C0.833984 3.23301 2.23398 1.83301 4.66732 1.83301H11.334C13.7673 1.83301 15.1673 3.23301 15.1673 5.66634V10.333C15.1673 12.7663 13.7673 14.1663 11.334 14.1663ZM4.66732 2.83301C2.76065 2.83301 1.83398 3.75967 1.83398 5.66634V10.333C1.83398 12.2397 2.76065 13.1663 4.66732 13.1663H11.334C13.2407 13.1663 14.1673 12.2397 14.1673 10.333V5.66634C14.1673 3.75967 13.2407 2.83301 11.334 2.83301H4.66732Z" fill="currentColor"/>
<path d="M7.9992 8.57998C7.4392 8.57998 6.87254 8.40665 6.4392 8.05331L4.35253 6.38665C4.1392 6.21331 4.0992 5.89998 4.27254 5.68665C4.44587 5.47331 4.75921 5.43332 4.97254 5.60665L7.0592 7.27332C7.56587 7.67998 8.42586 7.67998 8.93253 7.27332L11.0192 5.60665C11.2325 5.43332 11.5525 5.46665 11.7192 5.68665C11.8925 5.89998 11.8592 6.21998 11.6392 6.38665L9.55254 8.05331C9.12587 8.40665 8.5592 8.57998 7.9992 8.57998Z" fill="currentColor"/>
</svg>